REM MD5 40f415637e42209cdea08dc78c5560ec
FILE "Neo Planet (Japan).bin" BINARY
  TRACK 01 MODE2/2352
    INDEX 01 00:00:00
  TRACK 02 AUDIO
    INDEX 00 03:03:71
    INDEX 01 03:05:71
  TRACK 03 AUDIO
    INDEX 00 06:08:59
    INDEX 01 06:10:59
  TRACK 04 AUDIO
    INDEX 00 10:41:43
    INDEX 01 10:43:43
  TRACK 05 AUDIO
    INDEX 00 13:48:73
    INDEX 01 13:50:73
  TRACK 06 AUDIO
    INDEX 00 17:07:00
    INDEX 01 17:09:00
  TRACK 07 AUDIO
    INDEX 00 21:08:24
    INDEX 01 21:10:24
  TRACK 08 AUDIO
    INDEX 00 25:28:45
    INDEX 01 25:30:45
  TRACK 09 AUDIO
    INDEX 00 26:40:26
    INDEX 01 26:42:26
  TRACK 10 AUDIO
    INDEX 00 27:24:59
    INDEX 01 27:26:59
  TRACK 11 AUDIO
    INDEX 00 28:06:57
    INDEX 01 28:08:57
  TRACK 12 AUDIO
    INDEX 00 30:26:55
    INDEX 01 30:28:55
  TRACK 13 AUDIO
    INDEX 00 31:07:58
    INDEX 01 31:09:58
  TRACK 14 AUDIO
    INDEX 00 31:48:61
    INDEX 01 31:50:61
  TRACK 15 AUDIO
    INDEX 00 32:29:64
    INDEX 01 32:31:64
  TRACK 16 AUDIO
    INDEX 00 33:10:67
    INDEX 01 33:12:67
  TRACK 17 AUDIO
    INDEX 00 33:51:70
    INDEX 01 33:53:70
  TRACK 18 AUDIO
    INDEX 00 34:32:73
    INDEX 01 34:34:73
  TRACK 19 AUDIO
    INDEX 00 35:14:01
    INDEX 01 35:16:01
  TRACK 20 AUDIO
    INDEX 00 35:55:04
    INDEX 01 35:57:04
  TRACK 21 AUDIO
    INDEX 00 36:36:07
    INDEX 01 36:38:07
  TRACK 22 AUDIO
    INDEX 00 37:17:10
    INDEX 01 37:19:10
  TRACK 23 AUDIO
    INDEX 00 37:58:13
    INDEX 01 38:00:13
  TRACK 24 AUDIO
    INDEX 00 38:39:16
    INDEX 01 38:41:16
  TRACK 25 AUDIO
    INDEX 00 39:20:19
    INDEX 01 39:22:19
  TRACK 26 AUDIO
    INDEX 00 40:01:22
    INDEX 01 40:03:22
  TRACK 27 AUDIO
    INDEX 00 40:42:25
    INDEX 01 40:44:25
  TRACK 28 AUDIO
    INDEX 00 42:56:03
    INDEX 01 42:58:03
  TRACK 29 AUDIO
    INDEX 00 43:27:72
    INDEX 01 43:29:72
  TRACK 30 AUDIO
    INDEX 00 43:59:44
    INDEX 01 44:01:44
  TRACK 31 AUDIO
    INDEX 00 44:23:15
    INDEX 01 44:25:15
  TRACK 32 AUDIO
    INDEX 00 44:47:05
    INDEX 01 44:49:05
  TRACK 33 AUDIO
    INDEX 00 45:04:30
    INDEX 01 45:06:30
  TRACK 34 AUDIO
    INDEX 00 45:25:50
    INDEX 01 45:27:50
  TRACK 35 AUDIO
    INDEX 00 45:40:16
    INDEX 01 45:42:16
  TRACK 36 AUDIO
    INDEX 00 46:03:24
    INDEX 01 46:05:24
  TRACK 37 AUDIO
    INDEX 00 46:27:41
    INDEX 01 46:29:41
  TRACK 38 AUDIO
    INDEX 00 46:49:20
    INDEX 01 46:51:20
  TRACK 39 AUDIO
    INDEX 00 47:03:53
    INDEX 01 47:05:53
  TRACK 40 AUDIO
    INDEX 00 47:25:06
    INDEX 01 47:27:06
  TRACK 41 AUDIO
    INDEX 00 47:44:61
    INDEX 01 47:46:61
  TRACK 42 AUDIO
    INDEX 00 48:02:41
    INDEX 01 48:04:41
  TRACK 43 AUDIO
    INDEX 00 48:21:52
    INDEX 01 48:23:52
  TRACK 44 AUDIO
    INDEX 00 48:55:02
    INDEX 01 48:57:02
  TRACK 45 AUDIO
    INDEX 00 49:29:06
    INDEX 01 49:31:06
  TRACK 46 AUDIO
    INDEX 00 49:54:55
    INDEX 01 49:56:55
  TRACK 47 AUDIO
    INDEX 00 50:21:25
    INDEX 01 50:23:25
  TRACK 48 AUDIO
    INDEX 00 50:39:38
    INDEX 01 50:41:38
  TRACK 49 AUDIO
    INDEX 00 51:01:23
    INDEX 01 51:03:23
  TRACK 50 AUDIO
    INDEX 00 51:16:37
    INDEX 01 51:18:37
  TRACK 51 AUDIO
    INDEX 00 51:40:41
    INDEX 01 51:42:41
  TRACK 52 AUDIO
    INDEX 00 52:05:69
    INDEX 01 52:07:69
  TRACK 53 AUDIO
    INDEX 00 52:28:45
    INDEX 01 52:30:45
  TRACK 54 AUDIO
    INDEX 00 52:44:14
    INDEX 01 52:46:14
  TRACK 55 AUDIO
    INDEX 00 53:08:25
    INDEX 01 53:10:25
  TRACK 56 AUDIO
    INDEX 00 53:29:33
    INDEX 01 53:31:33
  TRACK 57 AUDIO
    INDEX 00 53:48:49
    INDEX 01 53:50:49
  TRACK 58 AUDIO
    INDEX 00 54:09:46
    INDEX 01 54:11:46
REM LEADOUT 57:17:01
